<svg id="Layer_1" data-name="Layer 1" xmlns="http://www.w3.org/2000/svg" viewBox="0 0 940.94 115.97"><defs><style>.cls-1{fill:#1b2733;}.cls-2{fill:#63b1ff;}.cls-3{fill:#0070e0;}.cls-4{fill:#2692ff;}</style></defs><title>STARKBANK Logo</title><path class="cls-1" d="M446.07,706.15a75.85,75.85,0,0,0-17.7-6.4,92.76,92.76,0,0,1-11-3.37,15,15,0,0,1-5.83-3.79,8.41,8.41,0,0,1-2-5.76,9.3,9.3,0,0,1,4-7.87q4-3,10.89-2.95a31.6,31.6,0,0,1,11.8,2.24,55.92,55.92,0,0,1,11.38,6.32,4.72,4.72,0,0,0,2.53,1.12c.84,0,1.64-.6,2.39-1.82l5.9-9.27a4.58,4.58,0,0,0,1-2.53,3.16,3.16,0,0,0-1.54-2.53,51.93,51.93,0,0,0-33.29-11.65,44.77,44.77,0,0,0-18.33,3.58,28.92,28.92,0,0,0-12.64,10.4A28.44,28.44,0,0,0,389,688.1q0,8.42,3.58,14a26.36,26.36,0,0,0,10.25,9.13,75.62,75.62,0,0,0,16.93,6A95.79,95.79,0,0,1,431.67,721a15.62,15.62,0,0,1,6,3.79,8.08,8.08,0,0,1,1.83,5.48,9.41,9.41,0,0,1-4.5,8.21q-4.5,3-12.78,3a35.86,35.86,0,0,1-13-2.46,44.77,44.77,0,0,1-11.73-6.67,4,4,0,0,0-2.53-1.27,2,2,0,0,0-1.19.49,5.55,5.55,0,0,0-1.19,1.33l-5.9,9.12a6.16,6.16,0,0,0-1.12,2.67c0,.85.65,1.78,2,2.81a52,52,0,0,0,15.59,8.85,55,55,0,0,0,19,3.23,49,49,0,0,0,19.67-3.72,30.62,30.62,0,0,0,13.34-10.61A27.86,27.86,0,0,0,459.83,729a25.26,25.26,0,0,0-3.44-13.56A26.74,26.74,0,0,0,446.07,706.15Z" transform="translate(-238.19 -650.68)"/><path class="cls-1" d="M547.41,678.2a3.6,3.6,0,0,0,.77-2.6V664.08a2.85,2.85,0,0,0-3.37-3.37H473a2.85,2.85,0,0,0-3.37,3.37V675.6A2.84,2.84,0,0,0,473,679h24.16a2.25,2.25,0,0,1,1.48.42,1.77,1.77,0,0,1,.49,1.4v74.87a2.84,2.84,0,0,0,3.37,3.37h12.78a3.87,3.87,0,0,0,2.67-.77,3.4,3.4,0,0,0,.84-2.6V680.79a1.55,1.55,0,0,1,1.83-1.82h24.16A3.6,3.6,0,0,0,547.41,678.2Z" transform="translate(-238.19 -650.68)"/><path class="cls-1" d="M599.17,665.49a36.59,36.59,0,0,0-3.23-5.62,3.34,3.34,0,0,0-2.67-1.4,3.73,3.73,0,0,0-2.81,1.4,25.47,25.47,0,0,0-3.23,5.62l-43.68,89.19a7.52,7.52,0,0,0-.7,2.39c0,1.31,1,2,3.09,2h12.5a6.92,6.92,0,0,0,3.79-.84,8.68,8.68,0,0,0,2.53-3.51l28.09-59.84,28.37,59.84a8.68,8.68,0,0,0,2.53,3.51,6.61,6.61,0,0,0,3.65.84h13.34c2.06,0,3.09-.65,3.09-2a7.5,7.5,0,0,0-.7-2.39Z" transform="translate(-238.19 -650.68)"/><path class="cls-1" d="M712.1,718.58a30.14,30.14,0,0,0,13.13-10q4.7-6.46,4.71-16,0-16-10.39-24t-31.6-7.94H658.16a2.85,2.85,0,0,0-3.37,3.37v91.59a2.85,2.85,0,0,0,3.37,3.37h12.78a3.87,3.87,0,0,0,2.67-.77,3.39,3.39,0,0,0,.84-2.6V680.09a1.91,1.91,0,0,1,.42-1.47,2.21,2.21,0,0,1,1.4-.35h11q10.81,0,16.5,3.86t5.69,12.15q0,7.73-5.41,11.94t-14.26,5.2c-1.69.09-2.53.61-2.53,1.54a4.09,4.09,0,0,0,.84,2.11l24,39.89a9.48,9.48,0,0,0,2.88,3.3,8.2,8.2,0,0,0,4,.77h13.62q3.37,0,3.37-1.69a6.18,6.18,0,0,0-1.12-2.67Z" transform="translate(-238.19 -650.68)"/><path class="cls-1" d="M764.21,660.71H751.43a2.85,2.85,0,0,0-3.37,3.37v91.59a2.85,2.85,0,0,0,3.37,3.37h12.78a3.87,3.87,0,0,0,2.67-.77,3.39,3.39,0,0,0,.84-2.6V664.08a3.38,3.38,0,0,0-.84-2.59A3.87,3.87,0,0,0,764.21,660.71Z" transform="translate(-238.19 -650.68)"/><path class="cls-1" d="M792.58,708.75,827.7,664.5a3.32,3.32,0,0,0,1-2.11q0-1.69-2.81-1.69H811a8.07,8.07,0,0,0-3.79.7,9.55,9.55,0,0,0-2.81,3l-32.31,42a5.51,5.51,0,0,0-1.4,3.09,5.2,5.2,0,0,0,1.26,3l32.87,43.12a9.26,9.26,0,0,0,2.88,2.81,8.46,8.46,0,0,0,3.86.7H827q3,0,3-1.69a4.44,4.44,0,0,0-1-2.25Z" transform="translate(-238.19 -650.68)"/><path class="cls-1" d="M879.39,709a26.46,26.46,0,0,0,14.26-7.73q5.55-5.9,5.55-15.73,0-12.78-8.5-18.83t-25.49-6H845.4A2,2,0,0,0,843,663.1v93.55A2,2,0,0,0,845.4,759h19.24q19.1,0,28.44-6.6T902.43,733q0-10.67-6.39-16.5T879.39,709ZM846.1,664.92c0-.47.09-.77.28-.91a1.41,1.41,0,0,1,.84-.21h17.56q15.87,0,23.6,5.41t7.73,16.5q0,10.12-7.44,16.08t-22.47,6h-19a1.14,1.14,0,0,1-.84-.28,1.13,1.13,0,0,1-.28-.84Zm18.54,91H847.22a1.14,1.14,0,0,1-.84-.28,1.13,1.13,0,0,1-.28-.84V712c0-.47.09-.77.28-.91a1.37,1.37,0,0,1,.84-.21h19q33.15,0,33.15,22.34Q899.34,755.94,864.64,755.94Z" transform="translate(-238.19 -650.68)"/><path class="cls-1" d="M961.84,663.1a20.64,20.64,0,0,0-1.54-2.88,1.42,1.42,0,0,0-2.53,0,20.11,20.11,0,0,0-1.54,2.88l-42.14,94.39a1.68,1.68,0,0,0-.28,1.19c.09.23.37.35.84.35h1.12a1.63,1.63,0,0,0,1.05-.28,3.46,3.46,0,0,0,.77-1.26L959,664.22l41.44,93.27a3.42,3.42,0,0,0,.77,1.26,1.62,1.62,0,0,0,1.05.28h1q1,0,1-.56a5.91,5.91,0,0,0-.28-1Z" transform="translate(-238.19 -650.68)"/><path class="cls-1" d="M1090.36,660.71h-.84a1.4,1.4,0,0,0-.84.21,1.12,1.12,0,0,0-.28.91v92.43L1022,661.69a10.2,10.2,0,0,0-1.41-1.62,2,2,0,0,0-1.26-.63c-1,0-1.55.85-1.55,2.53v95.93a1.14,1.14,0,0,0,.28.85,1.12,1.12,0,0,0,.84.28h.84c.47,0,.77-.09.91-.28a1.41,1.41,0,0,0,.21-.85V665.49L1087.27,758a10,10,0,0,0,1.41,1.62,2,2,0,0,0,1.26.63c1,0,1.55-.84,1.55-2.53V661.83a.89.89,0,0,0-1.12-1.13Z" transform="translate(-238.19 -650.68)"/><path class="cls-1" d="M1118.73,660.71h-.84a1.41,1.41,0,0,0-.84.21,1.13,1.13,0,0,0-.28.91v96.07a1.14,1.14,0,0,0,.28.85,1.12,1.12,0,0,0,.84.28h.84c.47,0,.77-.09.91-.28a1.41,1.41,0,0,0,.21-.85V661.83a.89.89,0,0,0-1.12-1.13Z" transform="translate(-238.19 -650.68)"/><path class="cls-1" d="M1127.3,709.87h0l51.13-47.62q.7-.7.7-1,0-.56-1.12-.56h-1a3.42,3.42,0,0,0-1.54.28,8.13,8.13,0,0,0-1.54,1.12l-49.58,46.35a2.3,2.3,0,0,0-.84,1.4h0a2.3,2.3,0,0,0,.84,1.4l49.58,46.35a8.13,8.13,0,0,0,1.54,1.12,3.42,3.42,0,0,0,1.54.28h1q1.12,0,1.12-.56,0-.28-.7-1Z" transform="translate(-238.19 -650.68)"/><path class="cls-2" d="M351.2,650.68H267.71a2.74,2.74,0,0,0-1.94,4.68l22.08,22.08h36.61a2.75,2.75,0,0,1,2.74,2.75v36.6l22.06,22.06a2.74,2.74,0,0,0,4.68-1.94V653.42A2.74,2.74,0,0,0,351.2,650.68Z" transform="translate(-238.19 -650.68)"/><path class="cls-3" d="M288.54,678.13l-.69-.69H240.94a2.75,2.75,0,0,0-1.94,4.7l83.52,83.7a2.74,2.74,0,0,0,4.69-1.95v-47.1l-.71-.71Z" transform="translate(-238.19 -650.68)"/><path class="cls-4" d="M324.46,677.44H287.85l39.35,39.35v-36.6A2.75,2.75,0,0,0,324.46,677.44Z" transform="translate(-238.19 -650.68)"/></svg>